<svg width="31" height="30" viewBox="0 0 31 30" fill="none" xmlns="http://www.w3.org/2000/svg">
<path fill-rule="evenodd" clip-rule="evenodd" d="M30.0766 26C29.7866 26.74 29.1166 27.78 28.1566 28.52C27.6066 28.94 26.9466 29.35 26.0466 29.62C25.0866 29.91 23.8966 30 22.4166 30H8.91663C7.43663 30 6.25663 29.9 5.28663 29.62C4.38663 29.35 3.72663 28.95 3.17663 28.52C2.22663 27.79 1.54663 26.74 1.25663 26C0.676626 24.51 0.666626 22.82 0.666626 21.75V8.25C0.666626 7.18 0.676626 5.49 1.25663 4C1.54663 3.26 2.21663 2.22 3.17663 1.48C3.72663 1.06 4.38663 0.65 5.28663 0.38C6.25663 0.1 7.43663 0 8.91663 0H22.4166C23.8966 0 25.0766 0.1 26.0466 0.38C26.9466 0.65 27.6066 1.05 28.1566 1.48C29.1066 2.21 29.7866 3.26 30.0766 4C30.6666 5.49 30.6666 7.19 30.6666 8.25V21.75C30.6666 22.82 30.6566 24.51 30.0766 26Z" fill="url(#paint0_linear_218_348)"/>
<path d="M18.2366 18.11C18.1966 17.75 18.0766 17.49 17.8366 17.25C17.3866 16.78 16.5966 16.47 15.6666 16.47C14.7366 16.47 13.9466 16.77 13.4966 17.25C13.2666 17.5 13.1366 17.75 13.0966 18.11C13.0166 18.81 13.0666 19.41 13.1466 20.38C13.2266 21.3 13.3766 22.53 13.5666 23.77C13.7066 24.66 13.8166 25.14 13.9166 25.48C14.0866 26.04 14.6966 26.52 15.6666 26.52C16.6366 26.52 17.2566 26.03 17.4166 25.48C17.5166 25.14 17.6266 24.66 17.7666 23.77C17.9566 22.52 18.1066 21.3 18.1866 20.38C18.2766 19.41 18.3166 18.81 18.2366 18.11Z" fill="white"/>
<path d="M18.1267 13.01C18.1267 14.37 17.0267 15.47 15.6667 15.47C14.3067 15.47 13.2067 14.37 13.2067 13.01C13.2067 11.65 14.3067 10.55 15.6667 10.55C17.0267 10.55 18.1267 11.66 18.1267 13.01Z" fill="white"/>
<path d="M15.6366 3.32C9.89661 3.34 5.19662 8 5.11662 13.74C5.05662 18.39 8.02661 22.37 12.1766 23.83C12.2766 23.87 12.3766 23.78 12.3666 23.68C12.3166 23.32 12.2566 22.96 12.2166 22.6C12.1966 22.47 12.1166 22.37 12.0066 22.31C8.72662 20.88 6.43662 17.59 6.47662 13.78C6.52662 8.78 10.6066 4.71 15.5966 4.67C20.7066 4.63 24.8766 8.77 24.8766 13.87C24.8766 17.64 22.5966 20.88 19.3466 22.31C19.2266 22.36 19.1466 22.47 19.1366 22.6C19.0866 22.96 19.0366 23.32 18.9866 23.68C18.9666 23.79 19.0766 23.87 19.1766 23.83C23.2866 22.39 26.2366 18.47 26.2366 13.87C26.2166 8.05 21.4666 3.31 15.6366 3.32Z" fill="white"/>
<path d="M15.3966 6.82C11.6566 6.96 8.65662 10.05 8.60662 13.79C8.57662 16.25 9.80662 18.43 11.6966 19.72C11.7866 19.78 11.9166 19.71 11.9166 19.6C11.8866 19.17 11.8866 18.79 11.9066 18.39C11.9166 18.26 11.8666 18.14 11.7666 18.05C10.6166 16.97 9.91662 15.43 9.95662 13.73C10.0366 10.73 12.4466 8.29 15.4466 8.17C18.7066 8.04 21.3866 10.66 21.3866 13.88C21.3866 15.52 20.6866 17 19.5766 18.05C19.4866 18.14 19.4366 18.26 19.4366 18.39C19.4566 18.78 19.4466 19.16 19.4266 19.59C19.4166 19.7 19.5466 19.78 19.6466 19.71C21.5066 18.44 22.7366 16.29 22.7366 13.87C22.7466 9.89 19.4166 6.66 15.3966 6.82Z" fill="white"/>
<defs>
<linearGradient id="paint0_linear_218_348" x1="15.6666" y1="0" x2="15.6666" y2="30" gradientUnits="userSpaceOnUse">
<stop stop-color="#F452FF"/>
<stop offset="1" stop-color="#832BC1"/>
</linearGradient>
</defs>
</svg>
