<svg width="811" height="836" viewBox="0 0 811 836" fill="none" xmlns="http://www.w3.org/2000/svg">
<path d="M1 0V836M60.7634 0L60.7635 836M120.527 0L120.527 836M180.29 0L180.29 836M240.054 0L240.054 836M299.817 0L299.818 836M359.581 0L359.581 836M419.344 0L419.344 836M479.108 0L479.108 836M538.871 0L538.872 836M598.635 0L598.635 836M658.398 0L658.398 836M718.162 0L718.162 836M777.925 0L777.926 836M1.00012 808.482L811 807.982M1.00024 748.218L811 748.218M1.00024 688.455L811 688.455M1.00024 628.691L811 628.691M1.00024 568.928L811 568.928M1.00024 509.164L811 509.164M1.00024 449.401H811M1.00024 389.637L811 389.637M1.00024 329.874L811 329.874M1.00024 270.11L811 270.11M1.00024 210.347L811 210.347M1.00024 150.583L811 150.583M1.00024 90.8198L811 90.8197M1.00024 31.0562H811" stroke="url(#paint0_linear_326_198)" stroke-opacity="0.5"/>
<defs>
<linearGradient id="paint0_linear_326_198" x1="658.098" y1="1181" x2="658.098" y2="-147.227" gradientUnits="userSpaceOnUse">
<stop offset="0.0001" stop-color="#B3B3B3" stop-opacity="0"/>
<stop offset="0.510417" stop-color="#B3B3B3"/>
<stop offset="1" stop-color="#B3B3B3" stop-opacity="0"/>
</linearGradient>
</defs>
</svg>
