<svg width="31" height="30" viewBox="0 0 31 30" fill="none" xmlns="http://www.w3.org/2000/svg">
<path fill-rule="evenodd" clip-rule="evenodd" d="M15.3333 30C7.02063 30 0.333252 23.3126 0.333252 15C0.333252 6.68738 7.02063 0 15.3333 0C23.6459 0 30.3333 6.68738 30.3333 15C30.3333 23.3126 23.6459 30 15.3333 30ZM15.3333 24.0626L16.4583 22.9376L15.3333 18.6251L14.2083 22.9376L15.3333 24.0626ZM13.8959 24L13.3334 26.1251L14.6459 24.8126L13.8959 24ZM16.7706 24L16.0206 24.75L17.3331 26.0625L16.7706 24ZM17.8334 27.8749L15.3333 25.3751L12.8331 27.8749C13.6458 28.0001 14.4584 28.125 15.3333 28.125C16.2081 28.125 17.0208 28.0624 17.8334 27.8749ZM15.3333 1.875C8.08338 1.875 2.20825 7.75013 2.20825 15C2.20825 20.7499 5.89563 25.6249 11.0208 27.375L13.8333 16.9376C13.2081 16.5 12.8331 15.75 12.8331 14.9374C12.8331 13.5626 13.9581 12.4376 15.3333 12.4376C16.7084 12.4376 17.8334 13.5626 17.8334 14.9374C17.8334 15.75 17.4584 16.4374 16.8333 16.9376L19.6458 27.375C24.7709 25.6249 28.4583 20.7499 28.4583 15C28.4583 7.75013 22.5831 1.875 15.3333 1.875ZM23.8956 21.4999C23.5833 21.8749 23.0208 22.0001 22.5831 21.6874C22.1459 21.375 22.0833 20.8125 22.3956 20.4375C22.3956 20.4375 24.0831 18.1875 24.0831 15C24.0831 11.8125 22.3956 9.5625 22.3956 9.5625C22.0833 9.1875 22.1459 8.625 22.5831 8.31263C23.0208 7.99988 23.5833 8.12513 23.8956 8.50013C24.0209 8.625 25.9581 11.1874 25.9581 15C25.9581 18.8126 24.0209 21.375 23.8956 21.4999ZM19.3334 19.0624C18.9584 18.6874 19.0206 18 19.3956 17.625C19.3956 17.625 20.3331 16.6249 20.3331 15C20.3331 13.3751 19.3956 12.4376 19.3956 12.375C19.0206 12 19.0206 11.3749 19.3334 10.9376C19.7084 10.5 20.2709 10.5 20.6459 10.875C20.7081 10.9376 22.2081 12.4999 22.2081 15C22.2081 17.5001 20.7081 19.0624 20.6459 19.125C20.2709 19.5 19.7084 19.4374 19.3334 19.0624ZM11.3331 19.0624C10.9581 19.4374 10.3956 19.5 10.0206 19.125C9.95838 19.0001 8.45838 17.5001 8.45838 15C8.45838 12.4999 9.95838 10.9999 10.0206 10.875C10.3956 10.5 11.0208 10.5 11.3331 10.9376C11.7081 11.3126 11.6459 12 11.2709 12.375C11.2709 12.4376 10.3334 13.3751 10.3334 15C10.3334 16.6249 11.2709 17.625 11.2709 17.625C11.6459 18 11.7081 18.6251 11.3331 19.0624ZM8.08338 21.6874C7.64575 22.0001 7.08325 21.8749 6.77088 21.4999C6.64563 21.375 4.70838 18.8126 4.70838 15C4.70838 11.1874 6.64563 8.625 6.77088 8.50013C7.08325 8.12513 7.64575 7.99988 8.08338 8.31263C8.52063 8.625 8.58325 9.1875 8.27088 9.5625C8.27088 9.5625 6.58338 11.8125 6.58338 15C6.58338 18.1875 8.27088 20.4375 8.27088 20.4375C8.58325 20.8125 8.45838 21.375 8.08338 21.6874Z" fill="#FC7E0F"/>
</svg>
