<svg width="20" height="21" viewBox="0 0 20 21" fill="none" xmlns="http://www.w3.org/2000/svg">
<path d="M3.05288 17.947C2.09778 17.0241 1.33596 15.92 0.811868 14.6994C0.287778 13.4787 0.0119157 12.1658 0.000377568 10.8373C-0.0111606 9.50886 0.241856 8.19139 0.744665 6.96179C1.24747 5.73219 1.99001 4.61509 2.92893 3.67568C3.86786 2.73627 4.98438 1.99336 6.21334 1.49029C7.44231 0.98722 8.7591 0.734073 10.0869 0.745617C11.4147 0.757161 12.7269 1.03317 13.9469 1.55753C15.167 2.08189 16.2704 2.8441 17.1929 3.7997C19.0145 5.68669 20.0224 8.21402 19.9996 10.8373C19.9768 13.4607 18.9251 15.9701 17.0711 17.8251C15.217 19.6802 12.7089 20.7324 10.0869 20.7552C7.46493 20.778 4.9389 19.7695 3.05288 17.947ZM15.7829 16.5363C17.284 15.0344 18.1273 12.9974 18.1273 10.8733C18.1273 8.74934 17.284 6.71233 15.7829 5.21042C14.2818 3.70852 12.2458 2.86477 10.1229 2.86477C7.99997 2.86477 5.96401 3.70852 4.46288 5.21042C2.96176 6.71233 2.11843 8.74934 2.11843 10.8733C2.11843 12.9974 2.96176 15.0344 4.46288 16.5363C5.96401 18.0382 7.99997 18.8819 10.1229 18.8819C12.2458 18.8819 14.2818 18.0382 15.7829 16.5363ZM7.12288 6.87128L15.1229 10.8733L7.12288 14.8754V6.87128Z" fill="white"/>
</svg>
