<svg width="30" height="30" viewBox="0 0 30 30" fill="none" xmlns="http://www.w3.org/2000/svg">
<g clip-path="url(#clip0_218_355)">
<path d="M24.3749 0.000118256H5.62488C2.51828 0.000118256 -0.00012207 2.51852 -0.00012207 5.62512V24.3751C-0.00012207 27.4817 2.51828 30.0001 5.62488 30.0001H24.3749C27.4815 30.0001 29.9999 27.4817 29.9999 24.3751V5.62512C29.9999 2.51852 27.4815 0.000118256 24.3749 0.000118256Z" fill="#FFA500"/>
<path d="M7.49988 26.2501C9.57095 26.2501 11.2499 24.5712 11.2499 22.5001C11.2499 20.4291 9.57095 18.7501 7.49988 18.7501C5.42881 18.7501 3.74988 20.4291 3.74988 22.5001C3.74988 24.5712 5.42881 26.2501 7.49988 26.2501Z" fill="white"/>
<path d="M3.74988 15.0001C6.73356 15.0001 9.59504 16.1854 11.7048 18.2952C13.8146 20.405 14.9999 23.2664 14.9999 26.2501H18.7499C18.7499 22.2719 17.1695 18.4566 14.3565 15.6435C11.5434 12.8305 7.72813 11.2501 3.74988 11.2501V15.0001Z" fill="white"/>
<path d="M3.74988 7.50012C6.21216 7.50012 8.65034 7.9851 10.9252 8.92738C13.2 9.86965 15.267 11.2508 17.0081 12.9919C18.7492 14.733 20.1303 16.7999 21.0726 19.0748C22.0149 21.3497 22.4999 23.7878 22.4999 26.2501H26.2499C26.2499 20.2827 23.8793 14.5598 19.6598 10.3402C15.4402 6.12065 9.71725 3.75012 3.74988 3.75012V7.50012Z" fill="white"/>
</g>
<defs>
<clipPath id="clip0_218_355">
<rect width="30" height="30" fill="white"/>
</clipPath>
</defs>
</svg>
