<svg width="30" height="30" viewBox="0 0 30 30" fill="none" xmlns="http://www.w3.org/2000/svg">
<path d="M23.8729 13.2978C19.0378 10.4263 11.0624 10.1623 6.44665 11.5632C5.70523 11.7881 4.9215 11.3698 4.69702 10.6285C4.47241 9.8868 4.89033 9.10347 5.63202 8.87818C10.9307 7.26988 19.7387 7.58047 25.305 10.8847C25.9719 11.2806 26.1903 12.1415 25.7952 12.8071C25.3997 13.4738 24.5379 13.6937 23.8728 13.2978M23.7146 17.5507C23.3754 18.1012 22.6556 18.2738 22.1058 17.9358C18.075 15.4581 11.9281 14.7402 7.15905 16.1878C6.54069 16.3746 5.8874 16.0261 5.69959 15.4087C5.61006 15.1119 5.64188 14.7917 5.78806 14.5183C5.93425 14.2449 6.18287 14.0406 6.47943 13.9503C11.9273 12.297 18.7 13.0976 23.3298 15.9429C23.8795 16.2815 24.0526 17.0015 23.7146 17.5507ZM21.8791 21.6351C21.8152 21.7401 21.7313 21.8314 21.632 21.9038C21.5328 21.9763 21.4203 22.0284 21.3009 22.0573C21.1815 22.0862 21.0575 22.0913 20.9362 22.0722C20.8148 22.0532 20.6984 22.0104 20.5936 21.9463C17.0712 19.7935 12.6377 19.3073 7.41631 20.5C7.29667 20.5273 7.17281 20.5308 7.05181 20.5103C6.93082 20.4898 6.81504 20.4457 6.71111 20.3804C6.60718 20.3151 6.51713 20.23 6.4461 20.1299C6.37506 20.0298 6.32445 19.9168 6.29713 19.7971C6.26962 19.6774 6.26599 19.5535 6.28645 19.4324C6.30691 19.3113 6.35106 19.1955 6.41636 19.0915C6.48166 18.9875 6.56683 18.8974 6.66701 18.8263C6.76718 18.7553 6.88038 18.7047 7.00013 18.6775C12.714 17.3715 17.6152 17.9336 21.5689 20.3495C21.6737 20.4135 21.7649 20.4976 21.8372 20.5968C21.9095 20.6961 21.9616 20.8086 21.9904 20.928C22.0192 21.0474 22.0242 21.1713 22.0051 21.2926C21.9861 21.414 21.9433 21.5303 21.8792 21.6351M14.9997 0C6.71586 0 0 6.7156 0 14.9997C0 23.2847 6.71586 30 14.9999 30C23.2843 30 30 23.2847 30 14.9997C30 6.71573 23.2844 0 14.9999 0" fill="#1ED760"/>
</svg>
